<svg xmlns="http://www.w3.org/2000/svg" viewBox="0 0 23 22" width="23" height="22">
	<style>
		tspan { white-space:pre }
		.shp0 { fill: #ffffff;stroke: #ffffff;stroke-width: 2 } 
	</style>
	<g id="Product">
		<g id="Product ">
			<g id="3">
				<g id="Hover ">
					<g id="Add to cart">
						<path id="Forma 1 copy" class="shp0" d="M0.85 1.79L3.29 1.79L6.76 15.04C6.86 15.42 7.2 15.69 7.59 15.69L18.26 15.69C18.6 15.69 18.9 15.48 19.04 15.15L22.93 5.74C23.04 5.45 23.01 5.14 22.86 4.89C22.7 4.63 22.43 4.48 22.15 4.48L10.35 4.48C9.88 4.48 9.5 4.89 9.5 5.38C9.5 5.87 9.88 6.28 10.35 6.28L20.84 6.28L17.7 13.9L8.22 13.9L4.75 0.66C4.65 0.27 4.31 0 3.93 0L0.85 0C0.38 0 0 0.4 0 0.9C0 1.39 0.38 1.79 0.85 1.79ZM6.78 22C7.84 22 8.71 21.09 8.71 19.97C8.71 18.85 7.84 17.93 6.78 17.93C5.71 17.93 4.85 18.85 4.85 19.97C4.85 21.09 5.71 22 6.78 22ZM18.83 22C18.87 22 18.93 22 18.97 22C19.48 21.96 19.95 21.72 20.29 21.3C20.63 20.89 20.79 20.37 20.76 19.82C20.69 18.71 19.77 17.86 18.7 17.93C17.64 18.01 16.84 19 16.92 20.1C16.99 21.16 17.82 22 18.83 22Z" />
					</g>
				</g>
			</g>
		</g>
	</g>
</svg>